<?xml version="1.0" encoding="utf-8"?>
<!-- Generator: Adobe Illustrator 22.1.0, SVG Export Plug-In . SVG Version: 6.00 Build 0)  -->
<svg version="1.1" id="Artwork" xmlns="http://www.w3.org/2000/svg" xmlns:xlink="http://www.w3.org/1999/xlink" x="0px" y="0px"
	 viewBox="0 0 312 371.1" style="enable-background:new 0 0 312 371.1;" xml:space="preserve">
<style type="text/css">
	.st0{fill:#FFFFFF;}
</style>
<g>
	<path class="st0" d="M14.2,338.2v17.4c0,5.4,1,7.2,6.9,7.1c6.7,0,12.4-3.4,12.4-11.8c0-8.7-6.4-12.7-14.6-12.7H14.2z M14.2,335.9h5
		c7.7,0,11.5-3.6,11.5-10.1c0-4.8-2-10.1-11.4-10.1c-2.6,0-3.7,0.2-4.4,0.5c-0.5,0.2-0.7,0.5-0.7,2.1V335.9z M22,313.3
		c5.8,0,9,1,11.7,2.8c2.7,1.9,4.1,4.8,4.1,8.8c0,7-6.6,10.5-10.5,11.4v0.2c7.3,1,13.8,5.4,13.8,13.4c0,5.7-2.8,9.7-7.4,12.3
		c-4.1,2.2-9.2,3-15.3,3H0v-1.8c6.7-0.5,7.4-1,7.4-9.7v-28.8c-0.1-8.7-0.6-9.3-6.9-9.7v-1.8L22,313.3L22,313.3z"/>
	<path class="st0" d="M69,340.1h4.6c3.3,0,5.8-0.4,8-2.2c3.4-2.7,4.6-6.6,4.6-10.6c0-8.4-6.1-11.7-12.1-11.7c-2.7,0-3.8,0.2-4.5,0.4
		c-0.5,0.2-0.7,0.6-0.7,2.2L69,340.1L69,340.1z M69,353.6c0,8.7,0.6,9.3,7.2,9.7v1.8H54.9v-1.8c6.7-0.5,7.4-1,7.4-9.7v-28.8
		c0-8.7-0.6-9.3-7-9.7v-1.8h20.3c5.1,0,9.7,0.7,12.6,2.7c3.2,2,5.3,5.6,5.3,10.2c0,6.6-4.1,11.4-10.6,14c1.4,2.4,4.7,7.9,7.1,11.4
		c2.9,4.2,4.6,6.4,6.7,8.8c1.7,2,3.1,3.3,6,4l-0.2,1.5h-1.1c-9.2-0.2-12-3-15-7.4c-2.5-3.6-5.8-9.5-8.1-13.3c-1.3-2.1-2.5-2.9-5-2.9
		H69L69,353.6L69,353.6z"/>
	<path class="st0" d="M136.7,314.7c-9.4,0-17.4,7.8-17.4,22.8c0,15.4,8.1,26.3,19.7,26.3c9.6,0,17.4-7.4,17.4-22.3
		C156.4,324.2,148.1,314.7,136.7,314.7 M164.2,338.5c0,16.6-11.6,27.9-26.9,27.9c-15.1,0-25.8-11.5-25.8-26.6
		c0-13.4,9.4-27.7,27.2-27.7C152.6,312.1,164.2,322.8,164.2,338.5"/>
	<path class="st0" d="M190.3,315.1l-2.5,0.3c-3.6,0.5-4.1,1.2-3,4.7l10.8,34h0.2l12.8-40.1h1.9l14.5,40h0.2
		c3.3-10.1,7.9-26.9,9.3-32.7c1.1-4.6,0.7-5.6-2.9-6l-2.3-0.3v-1.8h16.9v1.8c-5.3,0.6-5.8,1-8.5,8.2c-0.7,2-6.6,20.4-13.3,42.4h-2.2
		l-14.4-39.1l-0.2,0.2l-13,38.9h-2.2l-13.8-42.9c-2.2-6.6-3.4-7.2-7.9-7.7v-1.8h19.6V315.1z"/>
	<path class="st0" d="M304.4,365.8h-2.1l-34.7-42.1h-0.2v20.4c0,8.4,0.3,12.7,0.6,15.2c0.4,2.8,2.6,3.9,7.8,4.2v1.8h-19.2v-1.8
		c4.4-0.2,6.5-1.4,6.9-4.2c0.3-2.5,0.6-6.8,0.6-15.2v-17.3c0-5.8-0.1-7-1.5-8.9c-1.5-1.9-3.7-2.5-7-2.7v-1.8h11.7l33.7,40.3h0.2
		v-19.1c0-8.4-0.3-12.7-0.6-15.2c-0.4-2.8-2.6-3.9-7.8-4.1v-1.8H312v1.8c-4.4,0.2-6.5,1.4-6.9,4.1c-0.3,2.5-0.6,6.8-0.6,15.2v31.2
		H304.4z"/>
</g>
<g id="Shield_Reverse">
	<g>
		<path class="st0" d="M108,226c0,0,0.6-1.3,2.9-1.3c2.9,0.1,5.8,0.9,8.1,1.3c1,0.2,2,0.2,2.7,0.1v28.2c0,0-0.4,0.3-1.4,0.4
			c-0.5,0.1-1.4,0.1-2.3,0c-0.6-0.1-1.3-0.2-2.1-0.4c-5.4-1.6-7.9,0.2-7.9,0.2l2.5-2.6l-2.5,2.5V226z M90,254.3v-28.2v0.1
			c2.4,0.4,6.5-1.4,10.8-1.5c2.3-0.1,2.9,1.3,2.9,1.3l0,0v28.4l-0.5-0.2c0,0-2-1.4-7.4,0.1c-0.2,0-0.3,0.1-0.5,0.1
			C92.2,255.1,90.1,254.3,90,254.3 M71.6,123.5v86.8c0,28.6,7.2,48.5,22.5,62.5c15.3,13.9,38.1,20.9,60.3,26.1
			c22.9-5.4,45-12.1,60.3-26.1c15.4-14,22.5-33.9,22.5-62.5v-86.8C237.2,123.5,71.6,123.5,71.6,123.5z M180,139.6h4.1v-6
			c4.2,1,11.1-1.3,14.1-1.3c3.4,0,5.1,1.5,5.1,1.5s1.8-1.5,5.1-1.5c3,0,9.9,2.3,14.1,1.3v6h4.1v32.7h-19.3v2.4h-8.1v-2.4h-19.3
			L180,139.6L180,139.6z M82.4,139.4h4.1v-5.9c4.2,1,11.3-1.1,14.3-1.1c3.3,0,5.1,1.5,5.1,1.5s1.8-1.5,5.1-1.5c3,0,9.8,2.3,14,1.3
			v5.9h4.4v32.8H110v2.4h-7.9v-2.4l-19.5-0.1v-32.8L82.4,139.4L82.4,139.4z M129.2,261h-19.3v2.5l-8-0.1V261H84l-1.5-2.4v-30.3h4.2
			v-6c4.2,1,11.1-1.3,14.1-1.3c3.4,0,5.1,1.5,5.1,1.5s1.8-1.5,5.1-1.5c3,0,9.9,2.3,14.1,1.3v6.1l4.2-0.1V261H129.2z M224.8,260.9
			h-17.4v2.4h-8v-2.4H180v-32.7h4.2v-6c4.2,1,11.1-1.3,14.1-1.3c3.4,0,5.1,1.5,5.1,1.5s1.8-1.5,5.1-1.5c3,0,9.9,2.3,14.1,1.3v6h4.2
			v29.4L224.8,260.9z M235.2,212h-66.5v81.1l-14.4,3.8l-14.4-3.8v-81H73.5v-26.5H140v-60.1h28.9v60.1h66.4V212H235.2z M200.7,165.8
			c0,0-2.4-1.7-7.8-0.1c-4.2,1.3-5.8,0-5.8,0v-28.2c2.4,0.4,6.6-1.3,10.8-1.4c2.3-0.1,2.9,1.3,2.9,1.3v28.4H200.7z M205,165.8v-28.4
			c0,0,0.6-1.3,2.9-1.3c4.2,0.1,8.4,1.8,10.8,1.4v28.2c0,0-1.6,1.2-5.8,0C207.4,164.1,205,165.8,205,165.8z M103.7,165.8
			c0,0-2.4-1.7-7.9-0.1c-4.3,1.3-5.8,0-5.8,0v-28.2c2.4,0.4,6.6-1.3,10.9-1.4c2.3-0.1,2.9,1.3,2.9,1.3L103.7,165.8L103.7,165.8z
			 M108,166v-28.6c0,0,0.6-1.3,2.8-1.3c4.2,0.1,8.5,1.6,10.9,1.2v28.4c0,0-1.8,1-6-0.1C110.3,164,108,166,108,166z M205.5,225.9
			c0,0,0.6-1.3,2.9-1.3c2.9,0.1,5.8,0.9,8.1,1.3c1,0.2,2,0.2,2.7,0.1v28.2c0,0-0.4,0.3-1.4,0.4c-0.5,0.1-1.4,0.1-2.3,0
			c-0.6-0.1-1.4-0.2-2.1-0.4c-5.4-1.6-7.9,0.1-7.9,0.1L205.5,225.9L205.5,225.9z M201.3,254.3L201.3,254.3c-0.1-0.1-2.4-1.7-7.9-0.1
			c-0.2,0-0.3,0.1-0.5,0.1c-3.1,0.7-4.6,0.2-5.1,0l-0.2-0.1V226h0.1c2.4,0.4,6.5-1.3,10.7-1.4c2.3-0.1,2.9,1.3,2.9,1.3V254.3
			L201.3,254.3z"/>
		<g>
			<path class="st0" d="M128.8,39.1c0.3,0.5,0.7,1.3,1.4,2.3c1.6,2.7,4.1,12.8,7.3,16.1c1.7-1.1,4.7-2.7,6.4-3.2
				c-0.4-0.6-2.2-3.8-4.2-6.4c-3.9-5.1-6.7-7.9-6.9-8.4C131.7,39.5,129.9,39.5,128.8,39.1"/>
			<path class="st0" d="M157.9,52.5c0.7-5.3-0.9-14-2-16.2c-1.4-0.3-2.6-0.8-3.8-1.4c-0.1,0.6-1.1,4.3-1.5,9.5
				c-0.2,2.8-0.1,7.1,0.4,8.1C152.6,52.3,155.5,52.3,157.9,52.5"/>
			<path class="st0" d="M182.8,83.7c0-15.9-12.3-28.3-28.2-28.3c-15.6,0-28.2,12.7-28.2,28.3c0,0.7,0.2,2.2,0.4,3.8
				c8.2-1.9,18.8-1.6,23.6,2.3c7.5-4.3,18.9-4.4,27.1,0c3.2-1.7,4.6-2,5-2.1C182.7,86.4,182.8,84.4,182.8,83.7 M148.4,74
				c-0.1,1.8-1.7,3.2-3.4,3.1c-1.8-0.1-3.2-1.7-3.1-3.5v-0.3c-0.3-0.4-1.8-0.9-4,0.4c-1.2,0.7-2.3,0.2-0.4-1.5c2-1.8,4-2.8,5.6-3
				h0.1c2.8-0.2,6.6,0.4,8.4,1.2c0.7,0.3,0,3.9-0.2,3.9c-0.6-0.1-1.9-0.6-2.9-0.4V74H148.4z M157.9,83.9c-0.6,1.7-6.5,2.2-7.6,0
				c-0.4-0.8-1-3.1-0.2-2.6c1.4,0.7,6.1,0.2,7,0c0.8-0.2,0.3-1.4,0.7-1.1C158.4,80.2,158.4,82.2,157.9,83.9 M171.8,74.5
				c-1.5-1.3-3.4-1.8-4.2-1.3v0.2c0.1,1.8-1.2,3.5-3,3.6c-1.8,0.2-3.5-1.1-3.6-3v-0.1c-1.1-0.4-3,0.3-3.3,0.2
				c-0.1-0.1-0.9-3.4,0.1-3.9c2.8-1.2,11.9-1.8,14.6,3.4C172.8,74.4,172.6,75.2,171.8,74.5"/>
			<path class="st0" d="M173.5,38.7c-3.3,2.8-8.4,9.6-9,15.2c1.6,0.6,5.6,2.6,6.3,3c4.1-4.1,3.2-8.5,4.8-11.9
				c0.7-1.5,1.4-2.6,1.8-3.3C175.9,40.9,174.6,40,173.5,38.7"/>
			<path class="st0" d="M193.3,49.6c-0.7,0.4-2.4,1.5-3,1.9c-3.9,2.9-12.4,6.9-14.3,9.1c1.6,1.4,3.9,3.9,4.9,6
				c0.9,0,3.7-2.2,9.1-8.7c1.8-2.1,3.6-3.1,6.9-5C195.5,52,194.3,50.9,193.3,49.6"/>
			<path class="st0" d="M124.9,73.3c-1.9-1.8-5.4-3.3-10.2-3c-9.7,0.7-16.1,0.1-19.8-0.4c-6.3-0.9-10.1,0-13.3,0
				c-9.5,0,0.3,0.8,1.4,1.3c4.5,1.8,13.6,4.1,20.7,3.6c3.4-0.2,9.3,1.9,10.3,2.2c2.6,0.9,7.2,2.4,9.7,2.4
				C123.9,78.2,124.4,74.8,124.9,73.3"/>
			<path class="st0" d="M132.8,61.3c-4.9-4-9.4-4.8-16.5-8.2c-1.7-0.7-4.4-2.6-4.5-2.7c-0.2-0.1-0.5-0.3-0.9-0.6
				c-0.4,1.4-1.3,3.1-2.1,4.2c1.1,1.5,9.1,10.7,19.3,13.5C129.2,65.6,131,63.3,132.8,61.3"/>
			<path class="st0" d="M235.3,68.4c-0.5-0.1-2.3-0.3-3.5-0.3c-1.6,0-11.7,0.1-14.4,0.5c-5.6,0.9-16.6,0.4-22.6,0.2
				c-4.5-0.2-9.6,1.6-11.2,2.4c0,0,1.8,4.4,1.9,7.3c1.9,0.3,3.8-2.1,9.2-2c5.7,0.2,19.7-0.5,26.7-3.4c5.2-2.1,9.7-3.1,13.3-3.9
				C235.8,69.1,237.7,68.8,235.3,68.4"/>
			<path class="st0" d="M100.4,29.9c-4.2,0.9-8.6,2-9.9,8.7"/>
			<path class="st0" d="M89,32.6c-0.5-0.3-0.8-0.5-0.9-0.6c-8.2-5.4-4.4,1.6-1.3,4.6C86.8,36.5,86.9,34.1,89,32.6"/>
			<path class="st0" d="M119.7,13.5c-1-1.4-2.5-3-4.6-4.9c-1.5-1.3-2.6-0.6-1.8,1.9c0.3,0.9,0.6,1.8,0.8,2.6
				C114.3,13.1,116.7,12.8,119.7,13.5"/>
			<path class="st0" d="M156.6,5.6c-0.3-2.4-0.6-4.5-0.9-5.6c-0.9-2.9-2-0.6-2.2,0.3c-0.2,1.3-0.5,2.9-0.8,4.9
				C152.7,5.2,155.3,6.6,156.6,5.6"/>
			<path class="st0" d="M190.8,15.6c0.2-0.5,0.4-1,0.6-1.5c1.8-3.7,0.8-4.6-1-2.9c-2.1,1.9-3.3,3.1-4.4,4.2c0,0,0.3,1.4,1.5,1.8
				c1,0.4,2.6,0,2.6,0S190.5,16.6,190.8,15.6"/>
			<path class="st0" d="M225.4,30.3c0.6-0.8,1.6-1.9,2-2.3c0.5-0.6,2.2-3.4-2.4-1.1c-0.2,0.1-0.9,0.5-1.6,0.8
				C223.5,27.8,225.2,28.9,225.4,30.3"/>
			<path class="st0" d="M108.8,40c0.4-0.4,1-0.3,1.7-0.1c4.8,1.6,11.6,0.5,14.8-4.6c0.4-0.7,1.4-0.9,2.1-0.6c3.3,1.4,10,2,18.3-6.5
				c0.6-0.6,1.7-0.5,2.3,0c7.2,5.9,14.8,6.2,22.5,1c0.5-0.3,1-0.7,1.6-0.5s0.9,0.7,1,1.3c2.4,11.4,14.2,10.3,17.8,9.8
				c0.4-0.1,0.9,0,1.3,0.3c0.4,0.3,0.6,0.7,0.7,1.2c0.4,2.6,3.3,7.8,8.4,10.5c4.4,2.2,9.1,2.1,14.1-0.5c0.5-0.2,1.1-0.2,1.6,0
				c6.4,3.4,12.2,3.7,15.8,0.5c2.6-2.2,3.7-5.8,2.6-8.8c-1.1-3.4-4.6-5.6-9.4-5.9c-0.8,0-1.5-0.6-1.6-1.5c-0.4-2.7-2-5-4.4-6.6
				c-3.8-2.3-9.3-2.6-14.8-0.7c-0.5,0.2-1,0.1-1.5-0.2s-0.7-0.7-0.8-1.3c-0.3-2.1-1.3-5-3.9-6.7c-2.8-1.7-7-1.7-12.2,0.1
				c-0.8,0.3-1.7-0.1-2.1-0.8c-3.3-6.5-8-10.7-13.6-12.1c-4.9-1.4-10.5-0.3-15.2,2.6c-0.6,0.4-1.4,0.4-2-0.1
				c-4.7-3.6-10.2-4.7-15.4-3.1c-4.9,1.6-8.8,5.4-10.7,11c-0.1,0.4-0.5,0.8-0.9,1s-0.9,0.2-1.4,0c-7.6-3-13.8-3-18,0.2
				c-3.6,2.7-4.7,7.1-4.5,8.4c0.1,0.8-0.4,1.7-1.3,1.9l-1.8,0.4c-4.2,0.9-8.6,2-9.9,8.7c-0.1,0.7-0.7,1.4-1.6,1.4
				c-7,1.2-11.7,3.9-12.8,7.8c-0.7,2.8,0.6,6.1,3.1,7.8c2.6,1.8,5.8,1.6,8.6-0.5c0.5-0.3,1-0.4,1.7-0.2c4.3,1.7,11.3,1.4,15.5-2.1
				c3-2.5,4.3-6.2,3.6-10.9C108.2,41,108.4,40.4,108.8,40 M224.9,40.5c4.4-1,9.5,2.2,8.1,8.1c-0.2,1-2.7,1-2.6,0
				c0.4-4.9-2.1-5.3-5.2-5.2C223.8,43.3,223.9,40.7,224.9,40.5 M206.3,31.8c4.2-2.4,12.9-2,15.6,5.8c0.4,1.4-1.3,3.6-2.4,1.6
				c-3.2-6-8.5-6-12.9-4.3C205.5,35.2,204.7,32.7,206.3,31.8 M188.1,22.8c3.9-1.4,10.6-2,12.3,4.6c0.5,1.9-1.8,2.7-2.2,1.5
				c-1.8-4.8-5.2-4.6-9.3-3.2C187,26.2,187.4,23.1,188.1,22.8 M156.1,15.4c2.8-4.6,17.6-8.9,25.2,4.2c0.8,1.5-0.3,2.3-1.1,2.8
				c-0.6,0.4-0.9-0.5-1.4-1.2c-6.5-10.2-18.1-7.5-21.2-2.8C156.9,19.4,155.2,16.8,156.1,15.4 M132.2,16.2
				c2.6-4.2,11.5-10.5,19.3-3.5c0.8,0.7-0.2,3.7-1.1,3c-7.2-5-12.9-0.9-15.9,2.6C133.2,20,131.6,17.2,132.2,16.2 M89.7,45.1
				c-3,0-5.4,0.1-7.5,2.4c-2.3,2.5-1.7,3.9-2.1,4.3c-0.6,0.6-2.2-0.4-2.2-1.7C78,44.2,85,42,89.2,42.5
				C90.6,42.6,91.1,45.1,89.7,45.1 M101.9,35.3c-4.4,0.5-5.8,2.6-6.5,5.1c-0.3,0.9-2.8,0.3-2.4-1.6c1.1-5.4,7.1-6.8,9.2-6.4
				C103,32.7,102.8,35.3,101.9,35.3 M105.7,29.4c0.9-4.8,5.6-11.8,16.3-9.1c1.4,0.3,0.5,3.7-0.8,3.1c-7.8-3.1-11.8,2.9-13.1,7.6
				C108,31.6,105.4,31.4,105.7,29.4"/>
		</g>
		<path class="st0" d="M195.8,107.6c-2.1-2.5-3.5-5.9-5.9-7.3c-1.2-0.6-2-2-0.4-2.8c1.6-0.4,2.9,0.9,4.8,3.5c0.5,0.6,1,1.3,1.6,2
			c2.7,3,3,6.3,5.5,6.3c3.2,0.2,6.4-0.6,8.6-1.9c6.8,3,19.4,1.7,22.6-0.4c6-4.1,2.3-12.8-3.7-15.9c-12.2-5.9-23.1-1-26.1,0.3
			c-2.7-1.9-7.3-2.7-13.1-2.6c-6.4,0.4-9.3,1.4-13.5,3.5c-7.6-4.5-18.2-4.3-25.8,0c-3-2.4-8.9-3.3-14.6-3.1c-4.8,0.2-9.3,0.9-12,2.7
			c-3.3-2.4-14.5-6.7-27.7-1.3c-2.8-0.9-8.7-4.2-16.7-1.6c-9.7,3.2-8.4,12.1-5.2,16.3c4.4,5.7,12.5,4.8,15.2,1.9
			c-0.6-1.6-1.9-2.8-3.1-4.4c-1-1.4-2.2-2.5-2.8-2.7c-2.2,0-1.5-2.4-0.6-2.6c2.5-0.9,5.6,3.5,8.7,7c1.6,1.9,2.4,4.9,4.5,4.9
			c4.6-0.1,6.6-1.5,8.3-2.3c2.7,1.6,15.4,4.1,25.1,0.1c1.4,0.9,6.7,3.8,13.5,0.3c-2.6-2.8-4-5.8-6.5-7.6c-1.7-0.8-1.4-2.4-0.5-2.7
			c1.8-0.5,3.6,1.4,5.2,3.6c0.9,1.3,2,2.7,2.9,3.8c1.9,2.2,3.4,4.8,5.2,4.8c3.9,0.1,5.9-0.9,7.5-2.2c1.2,0.8,2.5,1.5,5,1.9
			c1.8,0.3,4,0.5,7.5,0.5c4.5-0.1,7.8-0.4,10-1c1.4-0.4,2.4-1.2,3-1.6C182.2,106.7,188.6,110.7,195.8,107.6z M106.5,104.6
			c-3.7-1.6-6.4-9.8-7.5-11c-0.4-0.4,6.2-2.8,13.2-2.3c11.9,0.8,12.1,8.5,14.9,12C128.2,104.6,117.5,107.6,106.5,104.6z
			 M159.9,105.1c-3.7-1.6-6.4-9.9-7.4-11c-0.4-0.4,6.4-2.8,13.4-2.3c11.8,1,11.9,8.4,14.7,12C181.7,105.2,170.8,108.2,159.9,105.1z
			 M232.6,102.7c-1,2.2-8.4,5-19.3,2c-3.7-1.6-6.4-9.9-7.5-11c-0.4-0.4,6.3-2.8,13.2-2.3C230.8,92.3,233.8,100.2,232.6,102.7z"/>
	</g>
</g>
</svg>
