<?xml version="1.0" encoding="UTF-8" standalone="no"?>
<!-- Created with Inkscape (http://www.inkscape.org/) -->

<svg
   xmlns:dc="http://purl.org/dc/elements/1.1/"
   xmlns:cc="http://creativecommons.org/ns#"
   xmlns:rdf="http://www.w3.org/1999/02/22-rdf-syntax-ns#"
   xmlns:svg="http://www.w3.org/2000/svg"
   xmlns="http://www.w3.org/2000/svg"
   xmlns:sodipodi="http://sodipodi.sourceforge.net/DTD/sodipodi-0.dtd"
   xmlns:inkscape="http://www.inkscape.org/namespaces/inkscape"
   width="91.266266mm"
   height="78.08593mm"
   viewBox="0 0 91.266266 78.08593"
   version="1.1"
   id="svg8"
   inkscape:version="0.92.4 5da689c313, 2019-01-14"
   sodipodi:docname="harlequin_logo.svg">
  <defs
     id="defs2" />
  <sodipodi:namedview
     id="base"
     pagecolor="#ffffff"
     bordercolor="#666666"
     borderopacity="1.0"
     inkscape:pageopacity="0.0"
     inkscape:pageshadow="2"
     inkscape:zoom="2.56"
     inkscape:cx="158.89167"
     inkscape:cy="163.79484"
     inkscape:document-units="mm"
     inkscape:current-layer="layer1"
     showgrid="false"
     fit-margin-top="0"
     fit-margin-left="0"
     fit-margin-right="0"
     fit-margin-bottom="0"
     inkscape:window-width="1920"
     inkscape:window-height="1015"
     inkscape:window-x="0"
     inkscape:window-y="36"
     inkscape:window-maximized="1" />
  <metadata
     id="metadata5">
    <rdf:RDF>
      <cc:Work
         rdf:about="">
        <dc:format>image/svg+xml</dc:format>
        <dc:type
           rdf:resource="http://purl.org/dc/dcmitype/StillImage" />
        <dc:title />
      </cc:Work>
    </rdf:RDF>
  </metadata>
  <g
     inkscape:label="Livello 1"
     inkscape:groupmode="layer"
     id="layer1"
     transform="translate(-28.701727,-72.104898)">
    <path
       style="fill:#bf392f;fill-opacity:1;stroke:#000000;stroke-width:0.26458332px;stroke-linecap:butt;stroke-linejoin:miter;stroke-opacity:1"
       d="m 98.069084,99.979064 19.999996,24.999996 -19.999996,25 -20,-25 z"
       id="path815"
       inkscape:connector-curvature="0"
       sodipodi:nodetypes="ccccc" />
    <path
       sodipodi:nodetypes="ccccc"
       inkscape:connector-curvature="0"
       id="path817"
       d="m 75.685262,72.316668 20,25 -20,24.999992 -20,-24.999992 z"
       style="fill:#399746;fill-opacity:1;stroke:#000000;stroke-width:0.26458332px;stroke-linecap:butt;stroke-linejoin:miter;stroke-opacity:1" />
    <path
       style="fill:#9259a3;fill-opacity:1;stroke:#000000;stroke-width:0.26458332px;stroke-linecap:butt;stroke-linejoin:miter;stroke-opacity:1"
       d="m 53.301438,99.979067 20,25.000003 -20,24.99999 -20.000005,-24.99999 z"
       id="path819"
       inkscape:connector-curvature="0"
       sodipodi:nodetypes="ccccc" />
    <g
       aria-label="Harlequin"
       style="font-style:normal;font-weight:normal;font-size:10.35720921px;line-height:1.25;font-family:sans-serif;letter-spacing:0px;word-spacing:0px;fill:#000000;fill-opacity:1;stroke:none;stroke-width:0.1614746;stroke-miterlimit:4;stroke-dasharray:none;stroke-opacity:1"
       id="text823">
      <path
         d="m 43.611365,129.50737 q 0,0.62972 0.04971,1.02743 0.06629,0.38115 0.248573,0.59658 0.198859,0.19886 0.530289,0.28171 0.348002,0.0829 0.911435,0.0994 v 0.66286 h -6.081753 v -0.66286 q 0.613147,-0.0166 0.97772,-0.0994 0.381146,-0.0829 0.580004,-0.28171 0.21543,-0.19886 0.281716,-0.56343 0.06629,-0.36458 0.06629,-0.94458 v -3.46345 H 35.02731 v 3.34745 q 0,0.62972 0.06629,1.02743 0.06629,0.38115 0.265145,0.59658 0.198858,0.19886 0.563432,0.28171 0.381145,0.0829 0.994292,0.0994 v 0.66286 h -6.065181 v -0.66286 q 0.563432,-0.0166 0.894863,-0.0994 0.348002,-0.0829 0.530289,-0.28171 0.182287,-0.19886 0.248573,-0.56343 0.06629,-0.36458 0.06629,-0.94458 v -7.65605 q 0,-0.58 -0.06629,-0.92801 -0.04971,-0.36457 -0.21543,-0.56343 -0.165715,-0.21543 -0.480575,-0.28171 -0.298287,-0.0829 -0.795433,-0.116 v -0.66287 h 5.717179 v 0.66287 q -0.563432,0.0166 -0.911435,0.0994 -0.33143,0.0829 -0.513717,0.29829 -0.182287,0.21543 -0.248573,0.59658 -0.04971,0.38114 -0.04971,1.01086 v 3.04916 h 6.148039 v -3.16516 q 0,-0.58 -0.06629,-0.92801 -0.06629,-0.36457 -0.248573,-0.56343 -0.182287,-0.21543 -0.530289,-0.28171 -0.331431,-0.0829 -0.894863,-0.116 v -0.66287 h 5.733751 v 0.66287 q -0.497146,0.0166 -0.812005,0.0994 -0.298288,0.0829 -0.464003,0.29829 -0.165716,0.21543 -0.232002,0.59658 -0.04971,0.38114 -0.04971,1.01086 z"
         style="font-style:normal;font-variant:normal;font-weight:bold;font-stretch:normal;font-size:16.5715332px;font-family:'Libre Baskerville';-inkscape-font-specification:'Libre Baskerville Bold';stroke:none;stroke-width:0.1614746;stroke-miterlimit:4;stroke-dasharray:none;stroke-opacity:1"
         id="path844" />
      <path
         d="m 51.631982,127.4525 q -1.392009,0.62972 -2.104585,1.17658 -0.696004,0.53029 -0.696004,1.11029 0,0.48057 0.265144,0.76229 0.265145,0.28172 0.662862,0.28172 0.397717,0 0.745719,-0.13258 0.348002,-0.14914 0.596575,-0.38114 0.248573,-0.232 0.381145,-0.54686 0.149144,-0.33143 0.149144,-0.69601 z m 0,-0.87829 v -0.69601 q 0,-0.96115 -0.348002,-1.39201 -0.331431,-0.44743 -1.044007,-0.44743 -0.480574,0 -0.729147,0.26515 -0.248573,0.24857 -0.464003,0.84514 -0.149144,0.41429 -0.43086,0.64629 -0.265145,0.23201 -0.745719,0.23201 -0.464003,0 -0.712576,-0.28172 -0.248573,-0.28172 -0.248573,-0.79543 0,-0.79544 0.86172,-1.25944 0.878291,-0.464 2.634874,-0.464 1.856011,0 2.651445,0.67943 0.795433,0.66286 0.795433,2.23716 v 3.62916 q 0,1.40858 0.563433,1.40858 0.314859,0 0.580003,-0.21543 l 0.248573,0.48058 q -0.232001,0.41429 -0.729147,0.66286 -0.480575,0.232 -1.093721,0.232 -0.762291,0 -1.160008,-0.464 -0.397717,-0.46401 -0.397717,-1.30915 h -0.08286 q -0.480575,0.86172 -1.242865,1.30915 -0.762291,0.44743 -1.740011,0.44743 -1.044007,0 -1.673725,-0.58001 -0.629718,-0.59657 -0.629718,-1.54115 0,-0.72915 0.646289,-1.35886 0.64629,-0.64629 2.1543,-1.25944 z"
         style="font-style:normal;font-variant:normal;font-weight:bold;font-stretch:normal;font-size:16.5715332px;font-family:'Libre Baskerville';-inkscape-font-specification:'Libre Baskerville Bold';stroke:none;stroke-width:0.1614746;stroke-miterlimit:4;stroke-dasharray:none;stroke-opacity:1"
         id="path846" />
      <path
         d="m 59.718882,129.6068 q 0,0.64629 0.04971,1.02743 0.06629,0.36458 0.248573,0.56343 0.182287,0.19886 0.530289,0.26515 0.348003,0.0497 0.928006,0.0497 v 0.66286 h -5.534892 v -0.66286 q 0.497146,-0.0331 0.795434,-0.0994 0.298287,-0.0663 0.447431,-0.26514 0.149144,-0.19886 0.182287,-0.56343 0.04971,-0.38115 0.04971,-1.01087 v -2.02172 q 0,-1.02744 -0.04971,-1.64059 -0.04971,-0.61314 -0.21543,-0.94457 -0.165715,-0.33143 -0.480574,-0.43086 -0.298288,-0.116 -0.795434,-0.116 v -0.58001 l 3.314307,-0.61314 0.265144,1.90572 h 0.06629 q 0.447432,-0.87829 1.176579,-1.39201 0.729148,-0.51371 1.541153,-0.51371 0.629718,0 1.027435,0.31486 0.397717,0.31485 0.397717,0.79543 0,0.53029 -0.31486,0.89486 -0.298287,0.36458 -0.828576,0.36458 -0.248573,0 -0.447432,-0.0994 -0.198858,-0.0994 -0.364573,-0.21543 -0.149144,-0.13258 -0.314859,-0.232 -0.149144,-0.11601 -0.31486,-0.11601 -0.314859,0 -0.596575,0.41429 -0.281716,0.41429 -0.464003,1.1103 -0.132572,0.49714 -0.21543,1.12686 -0.08286,0.61315 -0.08286,1.22629 z"
         style="font-style:normal;font-variant:normal;font-weight:bold;font-stretch:normal;font-size:16.5715332px;font-family:'Libre Baskerville';-inkscape-font-specification:'Libre Baskerville Bold';stroke:none;stroke-width:0.1614746;stroke-miterlimit:4;stroke-dasharray:none;stroke-opacity:1"
         id="path848" />
      <path
         d="m 67.789204,129.45765 q 0,0.66286 0.04972,1.06058 0.04971,0.39772 0.198858,0.61315 0.149144,0.21543 0.43086,0.29829 0.281716,0.0663 0.76229,0.0829 v 0.66286 h -5.220032 v -0.66286 q 0.464002,-0.0166 0.745719,-0.0994 0.298287,-0.0994 0.447431,-0.29828 0.165715,-0.21543 0.21543,-0.58001 0.06629,-0.38114 0.06629,-0.96115 v -6.84404 q 0,-0.96115 -0.03314,-1.5743 -0.03314,-0.62971 -0.08286,-0.86171 -0.08286,-0.41429 -0.381145,-0.54687 -0.281716,-0.13257 -1.044007,-0.13257 v -0.56343 l 3.844596,-0.62972 z"
         style="font-style:normal;font-variant:normal;font-weight:bold;font-stretch:normal;font-size:16.5715332px;font-family:'Libre Baskerville';-inkscape-font-specification:'Libre Baskerville Bold';stroke:none;stroke-width:0.1614746;stroke-miterlimit:4;stroke-dasharray:none;stroke-opacity:1"
         id="path850" />
      <path
         d="m 78.527548,130.63423 q -1.508009,1.70687 -3.761738,1.70687 -1.027435,0 -1.872583,-0.31486 -0.828577,-0.33143 -1.425152,-0.91143 -0.596575,-0.59658 -0.928006,-1.40858 -0.33143,-0.81201 -0.33143,-1.8063 0,-1.02744 0.348002,-1.87258 0.348002,-0.86172 0.97772,-1.47487 0.64629,-0.62972 1.50801,-0.97772 0.878291,-0.348 1.922298,-0.348 1.756582,0 2.734303,0.94457 0.97772,0.94458 0.97772,2.65145 0,0.26514 -0.08286,0.33143 -0.08286,0.0497 -0.464003,0.0497 h -5.336033 q -0.06629,0.14915 -0.06629,0.54687 0,1.62401 0.696004,2.56858 0.712576,0.94458 1.922298,0.94458 0.696004,0 1.375437,-0.31486 0.696005,-0.31486 1.342294,-0.89486 z m -3.214877,-4.35831 q 0.662861,0 0.845148,-0.0663 0.198858,-0.0829 0.198858,-0.36457 0,-0.72915 -0.414288,-1.19315 -0.414288,-0.464 -1.044006,-0.464 -0.712576,0 -1.276009,0.59657 -0.54686,0.58 -0.712575,1.49144 z"
         style="font-style:normal;font-variant:normal;font-weight:bold;font-stretch:normal;font-size:16.5715332px;font-family:'Libre Baskerville';-inkscape-font-specification:'Libre Baskerville Bold';stroke:none;stroke-width:0.1614746;stroke-miterlimit:4;stroke-dasharray:none;stroke-opacity:1"
         id="path852" />
      <path
         d="m 86.713875,127.02164 q 0,-0.61315 -0.182287,-1.12687 -0.165715,-0.51371 -0.464003,-0.89486 -0.298288,-0.38114 -0.712576,-0.59657 -0.397717,-0.21543 -0.878291,-0.21543 -0.994292,0 -1.524581,0.91143 -0.530289,0.91143 -0.530289,2.6183 0,1.72344 0.530289,2.63488 0.530289,0.91143 1.524581,0.91143 0.596575,0 1.077149,-0.31486 0.497146,-0.31486 0.778862,-0.89486 0.381146,-0.81201 0.381146,-2.00516 z m 0.03314,4.12631 h -0.08286 q -0.580004,0.62972 -1.176579,0.91143 -0.580003,0.28172 -1.358865,0.28172 -0.911435,0 -1.690297,-0.33143 -0.76229,-0.348 -1.325723,-0.94458 -0.563432,-0.61314 -0.878291,-1.44172 -0.314859,-0.82858 -0.314859,-1.8063 0,-1.01086 0.314859,-1.83944 0.314859,-0.84515 0.878291,-1.45829 0.580004,-0.61315 1.358866,-0.94458 0.795434,-0.348 1.740011,-0.348 1.657154,0 2.833732,1.12686 l 1.259437,-0.96115 h 0.729147 v 10.19149 q 0,0.69601 0.03314,1.09373 0.04972,0.39771 0.21543,0.61314 0.165716,0.21543 0.480575,0.28172 0.33143,0.0663 0.878291,0.0829 v 0.66286 h -5.932609 v -0.66286 q 0.596575,-0.0166 0.994292,-0.116 0.397717,-0.0829 0.629718,-0.31486 0.232002,-0.21543 0.31486,-0.59658 0.09943,-0.36457 0.09943,-0.928 z"
         style="font-style:normal;font-variant:normal;font-weight:bold;font-stretch:normal;font-size:16.5715332px;font-family:'Libre Baskerville';-inkscape-font-specification:'Libre Baskerville Bold';stroke:none;stroke-width:0.1614746;stroke-miterlimit:4;stroke-dasharray:none;stroke-opacity:1"
         id="path854" />
      <path
         d="m 98.148228,126.1102 q 0,-0.66286 -0.03314,-1.044 -0.03314,-0.39772 -0.182287,-0.59658 -0.149144,-0.21543 -0.447432,-0.28171 -0.281716,-0.0829 -0.778862,-0.13258 v -0.66286 h 3.745166 v 5.02118 q 0,1.01086 0.0166,1.59086 0.0332,0.56344 0.0994,0.84515 0.0497,0.21543 0.116,0.348 0.0663,0.116 0.21543,0.19886 0.14915,0.0663 0.39772,0.0994 0.26514,0.0166 0.67943,0.0166 v 0.64629 l -3.297733,0.19886 -0.182287,-1.47487 h -0.06629 q -0.43086,0.69601 -1.209722,1.07715 -0.778862,0.38115 -1.740011,0.38115 -1.773154,0 -2.70116,-1.25944 -0.712576,-0.96115 -0.712576,-2.7343 v -2.23716 q 0,-0.67943 -0.03314,-1.06057 -0.03314,-0.39772 -0.182287,-0.59658 -0.132572,-0.19886 -0.414288,-0.26514 -0.281716,-0.0829 -0.778862,-0.13258 v -0.66286 h 3.712023 v 4.68975 q 0,1.67372 0.414289,2.43601 0.414288,0.74572 1.325722,0.74572 0.977721,0 1.50801,-0.89486 0.530289,-0.86172 0.530289,-2.53545 z"
         style="font-style:normal;font-variant:normal;font-weight:bold;font-stretch:normal;font-size:16.5715332px;font-family:'Libre Baskerville';-inkscape-font-specification:'Libre Baskerville Bold';stroke:none;stroke-width:0.1614746;stroke-miterlimit:4;stroke-dasharray:none;stroke-opacity:1"
         id="path856" />
      <path
         d="m 106.45056,129.45765 q 0,0.66286 0.0497,1.06058 0.0497,0.39772 0.19886,0.61315 0.14915,0.21543 0.43086,0.29829 0.28172,0.0663 0.76229,0.0829 v 0.66286 h -5.22003 v -0.66286 q 0.464,-0.0166 0.74572,-0.0994 0.29829,-0.0994 0.44743,-0.29828 0.16572,-0.21543 0.21543,-0.58001 0.0663,-0.38114 0.0663,-0.96115 v -2.03829 q 0,-0.96115 -0.0332,-1.5743 -0.0331,-0.62972 -0.0828,-0.86172 -0.0829,-0.41429 -0.38115,-0.54686 -0.28172,-0.13257 -1.04401,-0.13257 v -0.56344 l 3.8446,-0.62971 z m -2.43602,-9.74406 q 0,-0.54686 0.36458,-0.91143 0.38114,-0.38115 0.91143,-0.38115 0.54686,0 0.91144,0.38115 0.38114,0.36457 0.38114,0.91143 0,0.53029 -0.38114,0.91144 -0.36458,0.36457 -0.91144,0.36457 -0.53029,0 -0.91143,-0.36457 -0.36458,-0.38115 -0.36458,-0.91144 z"
         style="font-style:normal;font-variant:normal;font-weight:bold;font-stretch:normal;font-size:16.5715332px;font-family:'Libre Baskerville';-inkscape-font-specification:'Libre Baskerville Bold';stroke:none;stroke-width:0.1614746;stroke-miterlimit:4;stroke-dasharray:none;stroke-opacity:1"
         id="path858" />
      <path
         d="m 112.43288,129.47422 q 0,0.67944 0.0331,1.07715 0.0497,0.38115 0.18229,0.59658 0.14915,0.19886 0.43086,0.26514 0.29829,0.0663 0.79544,0.0994 v 0.66286 h -5.22004 v -0.66286 q 0.48058,-0.0331 0.76229,-0.0994 0.29829,-0.0663 0.44743,-0.26514 0.16572,-0.19886 0.21543,-0.56343 0.0497,-0.36458 0.0497,-0.99429 v -2.07145 q 0,-0.97772 -0.0331,-1.57429 -0.0332,-0.61315 -0.0829,-0.82858 -0.0497,-0.21543 -0.13257,-0.348 -0.0829,-0.14914 -0.24858,-0.21543 -0.16571,-0.0829 -0.41429,-0.0994 -0.24857,-0.0331 -0.62971,-0.0331 v -0.56344 l 3.1983,-0.62971 0.21543,1.45829 h 0.0663 q 0.54686,-0.696 1.29258,-1.07715 0.74572,-0.38114 1.64058,-0.38114 1.06058,0 1.70687,0.29828 0.66286,0.28172 1.17658,0.96115 0.28171,0.38115 0.49714,0.9943 0.21543,0.59657 0.21543,1.65715 v 2.33658 q 0,0.67944 0.0332,1.07715 0.0497,0.38115 0.18228,0.59658 0.14915,0.19886 0.43086,0.26514 0.28172,0.0663 0.76229,0.0994 v 0.66286 h -5.18689 v -0.66286 q 0.49715,-0.0166 0.77886,-0.0829 0.29829,-0.0829 0.44744,-0.28172 0.14914,-0.19886 0.19885,-0.56343 0.0497,-0.38115 0.0497,-0.99429 v -2.25373 q 0,-0.84515 -0.0994,-1.42516 -0.0994,-0.58 -0.33143,-0.928 -0.21543,-0.36457 -0.58,-0.51372 -0.36458,-0.16571 -0.91144,-0.16571 -0.53029,0 -0.91143,0.29828 -0.38115,0.29829 -0.66286,0.82858 -0.14915,0.29829 -0.26515,0.77886 -0.0994,0.46401 -0.0994,0.97772 z"
         style="font-style:normal;font-variant:normal;font-weight:bold;font-stretch:normal;font-size:16.5715332px;font-family:'Libre Baskerville';-inkscape-font-specification:'Libre Baskerville Bold';stroke:none;stroke-width:0.1614746;stroke-miterlimit:4;stroke-dasharray:none;stroke-opacity:1"
         id="path860" />
    </g>
  </g>
</svg>
