<?xml version="1.0" encoding="UTF-8" standalone="no"?>
<svg
   xmlns:dc="http://purl.org/dc/elements/1.1/"
   xmlns:cc="http://creativecommons.org/ns#"
   xmlns:rdf="http://www.w3.org/1999/02/22-rdf-syntax-ns#"
   xmlns:svg="http://www.w3.org/2000/svg"
   xmlns="http://www.w3.org/2000/svg"
   xmlns:sodipodi="http://sodipodi.sourceforge.net/DTD/sodipodi-0.dtd"
   xmlns:inkscape="http://www.inkscape.org/namespaces/inkscape"
   version="1.1"
   x="0"
   y="0"
   width="55.21405"
   height="52.875435"
   viewBox="0 0 55.21405 52.875435"
   id="svg2"
   inkscape:version="0.91 r13725"
   sodipodi:docname="logo_small.svg"
   inkscape:export-filename="C:\Users\carsten\Desktop\logo.png"
   inkscape:export-xdpi="349.995"
   inkscape:export-ydpi="349.995">
  <metadata
     id="metadata27">
    <rdf:RDF>
      <cc:Work
         rdf:about="">
        <dc:format>image/svg+xml</dc:format>
        <dc:type
           rdf:resource="http://purl.org/dc/dcmitype/StillImage" />
        <dc:title></dc:title>
      </cc:Work>
    </rdf:RDF>
  </metadata>
  <defs
     id="defs25" />
  <sodipodi:namedview
     pagecolor="#ffffff"
     bordercolor="#666666"
     borderopacity="1"
     objecttolerance="10"
     gridtolerance="10"
     guidetolerance="10"
     inkscape:pageopacity="0"
     inkscape:pageshadow="2"
     inkscape:window-width="1536"
     inkscape:window-height="864"
     id="namedview23"
     showgrid="false"
     inkscape:zoom="6.675088"
     inkscape:cx="54.380312"
     inkscape:cy="6.1052858"
     inkscape:window-x="0"
     inkscape:window-y="0"
     inkscape:window-maximized="0"
     inkscape:current-layer="svg2"
     fit-margin-top="0"
     fit-margin-left="0"
     fit-margin-right="0"
     fit-margin-bottom="0" />
  <g
     id="g4155"
     transform="matrix(0.55964437,0,0,0.55964437,-0.53830233,-1.8117301)">
    <g
       transform="translate(-1.0618217,0)"
       id="g4150">
      <path
         style="fill:#60ad51;fill-opacity:1;fill-rule:evenodd;stroke:#60ad51;stroke-width:2;stroke-linecap:butt;stroke-linejoin:miter;stroke-miterlimit:4;stroke-dasharray:none;stroke-opacity:1"
         d="m 51.353271,3.6130338 0,56.3559322"
         id="path4164"
         inkscape:connector-curvature="0" />
      <g
         id="g17"
         transform="translate(-0.42372881,0)">
        <path
           style="fill:#60ad51"
           inkscape:connector-curvature="0"
           id="path19"
           d="m 51.777,47.791 c -8.837,0 -16,-7.164 -16,-16 0,-8.837 7.163,-16 16,-16 8.836,0 16,7.163 16,16 0,8.836 -7.164,16 -16,16 z" />
        <path
           style="fill:#389826"
           inkscape:connector-curvature="0"
           id="path21"
           d="m 51.776,14.291 c 9.666,0 17.501,7.835 17.501,17.5 0,9.665 -7.835,17.5 -17.5,17.5 -9.665,0 -17.5,-7.835 -17.5,-17.5 0,-9.665 7.835,-17.5 17.5,-17.5 z m 0,3 c -8.007,0 -14.499,6.492 -14.499,14.5 0,8.008 6.492,14.5 14.5,14.5 8.008,0 14.5,-6.492 14.5,-14.5 0,-8.008 -6.492,-14.5 -14.5,-14.5 z" />
      </g>
      <path
         style="fill:#389826;fill-opacity:1;fill-rule:evenodd;stroke:#389826;stroke-width:2;stroke-linecap:butt;stroke-linejoin:miter;stroke-miterlimit:4;stroke-dasharray:none;stroke-opacity:1"
         d="m 43.090559,4.2372881 16.525424,0"
         id="path4166"
         inkscape:connector-curvature="0" />
      <path
         inkscape:connector-curvature="0"
         id="path4168"
         d="m 43.090559,60.59322 16.525424,0"
         style="fill:#389826;fill-opacity:1;fill-rule:evenodd;stroke:#389826;stroke-width:2;stroke-linecap:butt;stroke-linejoin:miter;stroke-miterlimit:4;stroke-dasharray:none;stroke-opacity:1" />
    </g>
    <g
       id="g4193">
      <g
         id="g4158">
        <path
           inkscape:connector-curvature="0"
           id="path4164-5"
           d="m 82.121034,39.737521 0,56.355932"
           style="fill:#60ad51;fill-opacity:1;fill-rule:evenodd;stroke:#aa79c1;stroke-width:2;stroke-linecap:butt;stroke-linejoin:miter;stroke-miterlimit:4;stroke-dasharray:none;stroke-opacity:1" />
        <path
           inkscape:connector-curvature="0"
           id="path4166-61"
           d="m 73.858322,40.361775 16.525424,0"
           style="fill:#389826;fill-opacity:1;fill-rule:evenodd;stroke:#9558b2;stroke-width:2;stroke-linecap:butt;stroke-linejoin:miter;stroke-miterlimit:4;stroke-dasharray:none;stroke-opacity:1" />
        <path
           style="fill:#389826;fill-opacity:1;fill-rule:evenodd;stroke:#9558b2;stroke-width:2;stroke-linecap:butt;stroke-linejoin:miter;stroke-miterlimit:4;stroke-dasharray:none;stroke-opacity:1"
           d="m 73.858322,96.717707 16.525424,0"
           id="path4168-2"
           inkscape:connector-curvature="0" />
      </g>
      <g
         id="g11"
         transform="translate(9.3220339,0)">
        <path
           style="fill:#aa79c1"
           inkscape:connector-curvature="0"
           id="path13"
           d="m 72.799,84.209 c -8.837,0 -16,-7.163 -16,-16 0,-8.836 7.163,-16 16,-16 8.836,0 16,7.164 16,16 0,8.837 -7.164,16 -16,16 z" />
        <path
           style="fill:#9558b2"
           inkscape:connector-curvature="0"
           id="path15"
           d="m 72.799,50.709 c 9.665,0 17.5,7.835 17.5,17.5 0,9.665 -7.835,17.5 -17.5,17.5 -9.665,0 -17.5,-7.835 -17.5,-17.5 0,-9.665 7.835,-17.5 17.5,-17.5 z m 0,3 c -8.008,0 -14.5,6.492 -14.5,14.5 0,8.009 6.492,14.5 14.5,14.5 8.008,0 14.5,-6.491 14.5,-14.5 0,-8.008 -6.492,-14.5 -14.5,-14.5 z" />
      </g>
    </g>
    <g
       id="g4184">
      <g
         id="g4163"
         transform="translate(0,-0.14981)">
        <path
           inkscape:connector-curvature="0"
           id="path4164-4"
           d="m 18.461865,39.887331 0,56.355932"
           style="fill:#60ad51;fill-opacity:1;fill-rule:evenodd;stroke:#d5635c;stroke-width:2;stroke-linecap:butt;stroke-linejoin:miter;stroke-miterlimit:4;stroke-dasharray:none;stroke-opacity:1" />
        <path
           inkscape:connector-curvature="0"
           id="path4166-6"
           d="m 10.199153,40.511585 16.525424,0"
           style="fill:#389826;fill-opacity:1;fill-rule:evenodd;stroke:#cb3c33;stroke-width:2;stroke-linecap:butt;stroke-linejoin:miter;stroke-miterlimit:4;stroke-dasharray:none;stroke-opacity:1" />
        <path
           style="fill:#389826;fill-opacity:1;fill-rule:evenodd;stroke:#cb3c33;stroke-width:2;stroke-linecap:butt;stroke-linejoin:miter;stroke-miterlimit:4;stroke-dasharray:none;stroke-opacity:1"
           d="m 10.199153,96.867517 16.525424,0"
           id="path4168-3"
           inkscape:connector-curvature="0" />
      </g>
      <g
         id="g5"
         transform="translate(-12.288135,0)">
        <path
           style="fill:#d5635c"
           inkscape:connector-curvature="0"
           id="path7"
           d="m 30.75,84.209 c -8.836,0 -16,-7.163 -16,-16 0,-8.836 7.164,-16 16,-16 8.837,0 16,7.164 16,16 0,8.837 -7.163,16 -16,16 z" />
        <path
           style="fill:#cb3c33"
           inkscape:connector-curvature="0"
           id="path9"
           d="m 30.75,50.709 c 9.665,0 17.5,7.835 17.5,17.5 0,9.665 -7.835,17.5 -17.5,17.5 -9.665,0 -17.5,-7.835 -17.5,-17.5 0,-9.665 7.835,-17.5 17.5,-17.5 z m 0,3 c -8.008,0 -14.5,6.492 -14.5,14.5 0,8.009 6.492,14.5 14.5,14.5 8.008,0 14.5,-6.491 14.5,-14.5 0,-8.008 -6.492,-14.5 -14.5,-14.5 z" />
      </g>
    </g>
  </g>
</svg>
