<?xml version="1.0" encoding="UTF-8" standalone="no"?>
<svg
   xmlns:dc="http://purl.org/dc/elements/1.1/"
   xmlns:cc="http://creativecommons.org/ns#"
   xmlns:rdf="http://www.w3.org/1999/02/22-rdf-syntax-ns#"
   xmlns:svg="http://www.w3.org/2000/svg"
   xmlns="http://www.w3.org/2000/svg"
   xmlns:sodipodi="http://sodipodi.sourceforge.net/DTD/sodipodi-0.dtd"
   xmlns:inkscape="http://www.inkscape.org/namespaces/inkscape"
   aria-hidden="true"
   data-prefix="fas"
   data-icon="subscript"
   class="svg-inline--fa fa-subscript fa-w-16"
   role="img"
   viewBox="0 0 512 512"
   version="1.1"
   id="svg4"
   sodipodi:docname="formula.svg"
   inkscape:version="0.92.1 r15371">
  <metadata
     id="metadata10">
    <rdf:RDF>
      <cc:Work
         rdf:about="">
        <dc:format>image/svg+xml</dc:format>
        <dc:type
           rdf:resource="http://purl.org/dc/dcmitype/StillImage" />
        <dc:title></dc:title>
      </cc:Work>
    </rdf:RDF>
  </metadata>
  <defs
     id="defs8" />
  <sodipodi:namedview
     pagecolor="#ffffff"
     bordercolor="#666666"
     borderopacity="1"
     objecttolerance="10"
     gridtolerance="10"
     guidetolerance="10"
     inkscape:pageopacity="0"
     inkscape:pageshadow="2"
     inkscape:window-width="1366"
     inkscape:window-height="707"
     id="namedview6"
     showgrid="false"
     showguides="true"
     inkscape:guide-bbox="true"
     inkscape:zoom="0.4609375"
     inkscape:cx="102.82935"
     inkscape:cy="172.6081"
     inkscape:window-x="0"
     inkscape:window-y="27"
     inkscape:window-maximized="1"
     inkscape:current-layer="svg4" />
  <path
     d="m 498.14287,457.00762 c 6.83994,0 12.38418,5.54424 12.38418,12.38418 v 24.76836 c 0,6.83994 -5.54424,12.38418 -12.38418,12.38418 h -48.29753 c -4.25612,-1.6e-4 -8.21397,-2.18589 -10.48088,-5.78806 l -35.3731,-56.20483 c -1.7779,-2.59448 -3.42267,-5.39408 -4.795,-7.90188 -1.27711,2.51089 -2.82281,5.36932 -4.54654,8.19059 l -34.60759,55.84259 c -2.25792,3.64391 -6.23981,5.86088 -10.52655,5.86082 h -49.5197 c -6.83994,0 -12.38418,-5.54425 -12.38418,-12.38418 v -24.76837 c 0,-6.83993 5.54424,-12.38418 12.38418,-12.38418 h 20.37585 l 43.77189,-64.0177 -40.84148,-59.82332 h -23.30626 c -6.83994,0 -12.38418,-5.54425 -12.38418,-12.38418 v -24.76837 c 0,-6.83993 5.54424,-12.38418 12.38418,-12.38418 h 53.25662 c 4.31018,-9e-5 8.31039,2.24085 10.56139,5.91655 l 30.86912,50.40826 c 1.60375,2.72684 3.13706,5.55043 4.43276,8.02649 1.37542,-2.51089 3.03412,-5.38247 4.82751,-8.15575 l 31.21742,-50.33783 c 2.25823,-3.64202 6.23892,-5.85764 10.52423,-5.85772 h 52.45784 c 6.83994,0 12.38418,5.54425 12.38418,12.38418 v 24.76837 c 0,6.83993 -5.54424,12.38418 -12.38418,12.38418 h -21.65606 l -40.78265,58.5702 45.39034,65.2716 z"
     id="path2"
     inkscape:connector-curvature="0"
     style="fill:currentColor;stroke-width:0.77401131"
     sodipodi:nodetypes="sssscccccccsssscccsssscccccccsssscccs" />
  <path
     inkscape:connector-curvature="0"
     style="fill:currentColor;stroke-width:0.62505788"
     d="m 208.64967,3.3738779 h -40.80189 c -2.86383,-1.3e-5 -5.47774,1.6307014 -6.73688,4.2028894 L 109.52926,123.27182 v 0 L 57.158797,7.5767673 C 55.900111,5.0044783 53.286282,3.3736509 50.422548,3.3738779 H 9.6212725 c -5.661149,0 -9.28210801,6.0318074 -6.619361,11.0278931 L 84.133167,166.65647 v 109.24262 c 0,4.14225 3.35844,7.50069 7.50069,7.50069 h 35.003233 c 4.14226,0 7.5007,-3.35844 7.5007,-7.50069 V 166.65647 L 215.26904,14.401771 C 217.9318,9.4056853 214.31145,3.3738779 208.64967,3.3738779 Z"
     id="path2-3"
     sodipodi:nodetypes="sccccccscccsscccs" />
  <path
     style="fill:#000000;fill-opacity:1;stroke-width:3.36889768"
     d="m 372.17232,104.17432 15.31121,-0.13025 c 8.2702,-0.0704 7.16065,14.62626 1.92051,21.02487 L 159.35312,405.97858 c -3.08857,3.77143 -12.75473,1.84257 -21.02487,1.92051 l -13.81967,0.13025 c -8.27015,0.0779 -7.14024,-14.60959 -1.92052,-21.02486 L 351.14745,106.09484 c 3.21987,-3.95742 12.75466,-1.85016 21.02487,-1.92052 z"
     id="rect4547"
     inkscape:connector-curvature="0"
     sodipodi:nodetypes="sssssssss" />
</svg>
